<svg xmlns="http://www.w3.org/2000/svg" xmlns:xlink="http://www.w3.org/1999/xlink" width="2317pt" height="897pt" viewBox="0.00 0.00 2317.00 897.00">
<g id="graph0" class="graph" transform="scale(1 1) rotate(0) translate(4 893.2)">
<title>sfg</title>
<polygon fill="white" stroke="none" points="-4,4 -4,-893.2 2313.01,-893.2 2313.01,4 -4,4"/>
<!-- n1 -->
<g id="node1" class="node">
<title>n1</title>
<polygon fill="lightgrey" stroke="black" points="416.97,-806.4 97.7,-806.4 97.7,-770.4 416.97,-770.4 416.97,-806.4"/>
<text xml:space="preserve" text-anchor="middle" x="257.34" y="-785.4" font-family="Helvetica,sans-Serif" font-size="10.00" fill="#111111">Stmt(stmt_id=128,name=call_stmt,line=11,operation=%vv8 = main())</text>
</g>
<!-- n2 -->
<g id="node2" class="node">
<title>n2</title>
<polygon fill="#e9f7ef" stroke="#1e8449" points="395.16,-723.6 119.51,-723.6 119.51,-687.6 395.16,-687.6 395.16,-723.6"/>
<text xml:space="preserve" text-anchor="middle" x="257.34" y="-702.6" font-family="Helvetica,sans-Serif" font-size="10.00" fill="#111111">Symbol(name=%vv8,stmt_id=128,symbol_id=128,index=1)</text>
</g>
<!-- n1&#45;&gt;n2 -->
<g id="edge1" class="edge">
<title>n1-&gt;n2</title>
<path fill="none" stroke="#1e8449" stroke-width="1.2" d="M257.34,-770.26C257.34,-760.16 257.34,-747.1 257.34,-735.45"/>
<polygon fill="#1e8449" stroke="#1e8449" stroke-width="1.2" points="260.84,-735.81 257.34,-725.81 253.84,-735.81 260.84,-735.81"/>
<text xml:space="preserve" text-anchor="middle" x="303.37" y="-744.3" font-family="Helvetica,sans-Serif" font-size="9.00">128:symbol_is_defined</text>
</g>
<!-- n5 -->
<g id="node5" class="node">
<title>n5</title>
<polygon fill="#fff4e6" stroke="#d35400" points="260.67,-640.8 0,-640.8 0,-604.8 260.67,-604.8 260.67,-640.8"/>
<text xml:space="preserve" text-anchor="middle" x="130.34" y="-619.8" font-family="Helvetica,sans-Serif" font-size="10.00" fill="#111111">State(stmt_id=128,state_id=126,index=11,stmt_id=128)</text>
</g>
<!-- n2&#45;&gt;n5 -->
<g id="edge2" class="edge">
<title>n2-&gt;n5</title>
<path fill="none" stroke="#d35400" stroke-width="1.2" d="M230.09,-687.27C211.76,-675.6 187.37,-660.08 167.29,-647.31"/>
<polygon fill="#d35400" stroke="#d35400" stroke-width="1.2" points="169.39,-644.49 159.07,-642.08 165.63,-650.4 169.39,-644.49"/>
<text xml:space="preserve" text-anchor="middle" x="236.71" y="-661.5" font-family="Helvetica,sans-Serif" font-size="9.00">128:symbol_state</text>
</g>
<!-- n42 -->
<g id="node42" class="node">
<title>n42</title>
<polygon fill="#fff4e6" stroke="#d35400" points="539.67,-640.8 279,-640.8 279,-604.8 539.67,-604.8 539.67,-640.8"/>
<text xml:space="preserve" text-anchor="middle" x="409.34" y="-619.8" font-family="Helvetica,sans-Serif" font-size="10.00" fill="#111111">State(stmt_id=128,state_id=137,index=86,stmt_id=128)</text>
</g>
<!-- n2&#45;&gt;n42 -->
<g id="edge3" class="edge">
<title>n2-&gt;n42</title>
<path fill="none" stroke="#d35400" stroke-width="1.2" d="M289.95,-687.27C312.21,-675.43 341.94,-659.62 366.17,-646.75"/>
<polygon fill="#d35400" stroke="#d35400" stroke-width="1.2" points="367.73,-649.88 374.92,-642.1 364.44,-643.7 367.73,-649.88"/>
<text xml:space="preserve" text-anchor="middle" x="377.71" y="-661.5" font-family="Helvetica,sans-Serif" font-size="9.00">128:symbol_state</text>
</g>
<!-- n3 -->
<g id="node3" class="node">
<title>n3</title>
<polygon fill="#e9f7ef" stroke="#1e8449" points="654.78,-889.2 381.9,-889.2 381.9,-853.2 654.78,-853.2 654.78,-889.2"/>
<text xml:space="preserve" text-anchor="middle" x="518.34" y="-868.2" font-family="Helvetica,sans-Serif" font-size="10.00" fill="#111111">Symbol(name=main,stmt_id=128,symbol_id=110,index=0)</text>
</g>
<!-- n3&#45;&gt;n1 -->
<g id="edge5" class="edge">
<title>n3-&gt;n1</title>
<path fill="none" stroke="#2b65d9" stroke-width="1.2" d="M462.03,-852.77C421.72,-840.29 367.27,-823.43 324.67,-810.24"/>
<polygon fill="#2b65d9" stroke="#2b65d9" stroke-width="1.2" points="325.87,-806.95 315.28,-807.34 323.8,-813.64 325.87,-806.95"/>
<text xml:space="preserve" text-anchor="middle" x="458.13" y="-827.1" font-family="Helvetica,sans-Serif" font-size="9.00">128:symbol_is_used,pos=0</text>
</g>
<!-- n4 -->
<g id="node4" class="node">
<title>n4</title>
<polygon fill="#fff4e6" stroke="#d35400" points="776.11,-806.4 434.56,-806.4 434.56,-770.4 776.11,-770.4 776.11,-806.4"/>
<text xml:space="preserve" text-anchor="middle" x="605.34" y="-785.4" font-family="Helvetica,sans-Serif" font-size="10.00" fill="#111111">State(stmt_id=128,state_id=104,index=2,stmt_id=128,access_path=main)</text>
</g>
<!-- n3&#45;&gt;n4 -->
<g id="edge4" class="edge">
<title>n3-&gt;n4</title>
<path fill="none" stroke="#d35400" stroke-width="1.2" d="M536.79,-853.06C548.82,-841.89 564.72,-827.12 578.19,-814.62"/>
<polygon fill="#d35400" stroke="#d35400" stroke-width="1.2" points="580.34,-817.4 585.28,-808.03 575.57,-812.27 580.34,-817.4"/>
<text xml:space="preserve" text-anchor="middle" x="602.32" y="-827.1" font-family="Helvetica,sans-Serif" font-size="9.00">128:symbol_state</text>
</g>
<!-- n6 -->
<g id="node6" class="node">
<title>n6</title>
<polygon fill="lightgrey" stroke="black" points="1201.24,-806.4 921.43,-806.4 921.43,-770.4 1201.24,-770.4 1201.24,-806.4"/>
<text xml:space="preserve" text-anchor="middle" x="1061.34" y="-785.4" font-family="Helvetica,sans-Serif" font-size="10.00" fill="#111111">Stmt(stmt_id=114,name=call_stmt,line=1,operation=a = A())</text>
</g>
<!-- n7 -->
<g id="node7" class="node">
<title>n7</title>
<polygon fill="#e9f7ef" stroke="#1e8449" points="1192.5,-723.6 930.17,-723.6 930.17,-687.6 1192.5,-687.6 1192.5,-723.6"/>
<text xml:space="preserve" text-anchor="middle" x="1061.34" y="-702.6" font-family="Helvetica,sans-Serif" font-size="10.00" fill="#111111">Symbol(name=a,stmt_id=114,symbol_id=113,index=15)</text>
</g>
<!-- n6&#45;&gt;n7 -->
<g id="edge6" class="edge">
<title>n6-&gt;n7</title>
<path fill="none" stroke="#1e8449" stroke-width="1.2" d="M1061.34,-770.26C1061.34,-760.16 1061.34,-747.1 1061.34,-735.45"/>
<polygon fill="#1e8449" stroke="#1e8449" stroke-width="1.2" points="1064.84,-735.81 1061.34,-725.81 1057.84,-735.81 1064.84,-735.81"/>
<text xml:space="preserve" text-anchor="middle" x="1107.37" y="-744.3" font-family="Helvetica,sans-Serif" font-size="9.00">114:symbol_is_defined</text>
</g>
<!-- n10 -->
<g id="node10" class="node">
<title>n10</title>
<polygon fill="#fff4e6" stroke="#d35400" points="901.84,-532.8 570.84,-532.8 570.84,-496.8 901.84,-496.8 901.84,-532.8"/>
<text xml:space="preserve" text-anchor="middle" x="736.34" y="-511.8" font-family="Helvetica,sans-Serif" font-size="10.00" fill="#111111">State(stmt_id=114,state_id=129,index=51,stmt_id=114,access_path=a)</text>
</g>
<!-- n7&#45;&gt;n10 -->
<g id="edge7" class="edge">
<title>n7-&gt;n10</title>
<path fill="none" stroke="#d35400" stroke-width="1.2" d="M1035.29,-687.19C990.47,-657.55 895.46,-596.11 811.34,-550.8 803.33,-546.49 794.7,-542.17 786.24,-538.11"/>
<polygon fill="#d35400" stroke="#d35400" stroke-width="1.2" points="787.86,-535 777.33,-533.9 784.88,-541.34 787.86,-535"/>
<text xml:space="preserve" text-anchor="middle" x="998.12" y="-620.1" font-family="Helvetica,sans-Serif" font-size="9.00">114:symbol_state</text>
</g>
<!-- n11 -->
<g id="node11" class="node">
<title>n11</title>
<polygon fill="lightgrey" stroke="black" points="1728.76,-586.8 1443.91,-586.8 1443.91,-550.8 1728.76,-550.8 1728.76,-586.8"/>
<text xml:space="preserve" text-anchor="middle" x="1586.34" y="-565.8" font-family="Helvetica,sans-Serif" font-size="10.00" fill="#111111">Stmt(stmt_id=115,name=field_read,line=2,operation=b = a.g)</text>
</g>
<!-- n7&#45;&gt;n11 -->
<g id="edge8" class="edge">
<title>n7-&gt;n11</title>
<path fill="none" stroke="#2b65d9" stroke-width="1.2" d="M1167.05,-687.14C1229.56,-675.91 1310.02,-659.86 1380.34,-640.8 1432.01,-626.8 1489.51,-606.58 1530.6,-591.29"/>
<polygon fill="#2b65d9" stroke="#2b65d9" stroke-width="1.2" points="1531.63,-594.64 1539.77,-587.86 1529.18,-588.09 1531.63,-594.64"/>
<text xml:space="preserve" text-anchor="middle" x="1360.82" y="-661.5" font-family="Helvetica,sans-Serif" font-size="9.00">115:symbol_is_used,pos=0</text>
</g>
<!-- n14 -->
<g id="node14" class="node">
<title>n14</title>
<polygon fill="lightgrey" stroke="black" points="1951.77,-640.8 1630.9,-640.8 1630.9,-604.8 1951.77,-604.8 1951.77,-640.8"/>
<text xml:space="preserve" text-anchor="middle" x="1791.34" y="-619.8" font-family="Helvetica,sans-Serif" font-size="10.00" fill="#111111">Stmt(stmt_id=116,name=call_stmt,line=3,operation=%vv3 = foo(['a']))</text>
</g>
<!-- n7&#45;&gt;n14 -->
<g id="edge9" class="edge">
<title>n7-&gt;n14</title>
<path fill="none" stroke="#2b65d9" stroke-width="1.2" d="M1192.87,-704.85C1309.64,-703.12 1484.48,-695.7 1634.34,-669.6 1666.81,-663.94 1702.12,-654 1731.01,-644.82"/>
<polygon fill="#2b65d9" stroke="#2b65d9" stroke-width="1.2" points="1731.99,-648.18 1740.43,-641.77 1729.84,-641.52 1731.99,-648.18"/>
<text xml:space="preserve" text-anchor="middle" x="1737.21" y="-661.5" font-family="Helvetica,sans-Serif" font-size="9.00">116:symbol_is_used,pos=1</text>
</g>
<!-- n20 -->
<g id="node20" class="node">
<title>n20</title>
<polygon fill="#e9f7ef" stroke="#1e8449" points="867.22,-640.8 605.46,-640.8 605.46,-604.8 867.22,-604.8 867.22,-640.8"/>
<text xml:space="preserve" text-anchor="middle" x="736.34" y="-619.8" font-family="Helvetica,sans-Serif" font-size="10.00" fill="#111111">Symbol(name=z,stmt_id=121,symbol_id=121,index=54)</text>
</g>
<!-- n7&#45;&gt;n20 -->
<g id="edge10" class="edge">
<title>n7-&gt;n20</title>
<path fill="none" stroke="#27ae60" stroke-width="1.2" d="M983.1,-687.1C959.36,-681.65 933.23,-675.52 909.3,-669.6 877.22,-661.66 841.92,-652.41 811.63,-644.31"/>
<polygon fill="#27ae60" stroke="#27ae60" stroke-width="1.2" points="812.6,-640.94 802.03,-641.73 810.79,-647.71 812.6,-640.94"/>
<text xml:space="preserve" text-anchor="middle" x="942.82" y="-661.5" font-family="Helvetica,sans-Serif" font-size="9.00">121:symbol_flow</text>
</g>
<!-- n8 -->
<g id="node8" class="node">
<title>n8</title>
<polygon fill="#e9f7ef" stroke="#1e8449" points="1415.89,-889.2 1222.78,-889.2 1222.78,-853.2 1415.89,-853.2 1415.89,-889.2"/>
<text xml:space="preserve" text-anchor="middle" x="1319.34" y="-868.2" font-family="Helvetica,sans-Serif" font-size="10.00" fill="#111111">Symbol(name=A,stmt_id=114,index=14)</text>
</g>
<!-- n8&#45;&gt;n6 -->
<g id="edge12" class="edge">
<title>n8-&gt;n6</title>
<path fill="none" stroke="#2b65d9" stroke-width="1.2" d="M1263.67,-852.77C1223.91,-840.32 1170.24,-823.51 1128.16,-810.33"/>
<polygon fill="#2b65d9" stroke="#2b65d9" stroke-width="1.2" points="1129.22,-806.99 1118.64,-807.34 1127.13,-813.67 1129.22,-806.99"/>
<text xml:space="preserve" text-anchor="middle" x="1260.45" y="-827.1" font-family="Helvetica,sans-Serif" font-size="9.00">114:symbol_is_used,pos=0</text>
</g>
<!-- n9 -->
<g id="node9" class="node">
<title>n9</title>
<polygon fill="#fff4e6" stroke="#d35400" points="1551.39,-806.4 1219.28,-806.4 1219.28,-770.4 1551.39,-770.4 1551.39,-806.4"/>
<text xml:space="preserve" text-anchor="middle" x="1385.34" y="-785.4" font-family="Helvetica,sans-Serif" font-size="10.00" fill="#111111">State(stmt_id=114,state_id=108,index=30,stmt_id=114,access_path=A)</text>
</g>
<!-- n8&#45;&gt;n9 -->
<g id="edge11" class="edge">
<title>n8-&gt;n9</title>
<path fill="none" stroke="#d35400" stroke-width="1.2" d="M1333.33,-853.06C1342.2,-842.21 1353.84,-827.96 1363.86,-815.69"/>
<polygon fill="#d35400" stroke="#d35400" stroke-width="1.2" points="1366.37,-818.15 1369.98,-808.2 1360.95,-813.73 1366.37,-818.15"/>
<text xml:space="preserve" text-anchor="middle" x="1391.56" y="-827.1" font-family="Helvetica,sans-Serif" font-size="9.00">114:symbol_state</text>
</g>
<!-- n13 -->
<g id="node13" class="node">
<title>n13</title>
<polygon fill="#fdedec" stroke="#c0392b" stroke-width="2.2" stroke-dasharray="5,2" points="1084.01,-367.2 744.67,-367.2 744.67,-331.2 1084.01,-331.2 1084.01,-367.2"/>
<text xml:space="preserve" text-anchor="middle" x="914.34" y="-346.2" font-family="Helvetica,sans-Serif" font-size="10.00" fill="#111111">State(stmt_id=115,state_id=130,index=52,stmt_id=115,access_path=a.g)</text>
</g>
<!-- n10&#45;&gt;n13 -->
<g id="edge13" class="edge">
<title>n10-&gt;n13</title>
<path fill="none" stroke="#9b59b6" stroke-width="1.2" d="M768.37,-496.32C803.03,-476.06 858.05,-439.77 893.34,-396 897.52,-390.81 901.08,-384.64 904.01,-378.55"/>
<polygon fill="#9b59b6" stroke="#9b59b6" stroke-width="1.2" points="907.14,-380.12 907.89,-369.55 900.72,-377.35 907.14,-380.12"/>
<text xml:space="preserve" text-anchor="middle" x="914.16" y="-429.3" font-family="Helvetica,sans-Serif" font-size="9.00">115:state_inclusion</text>
</g>
<!-- n12 -->
<g id="node12" class="node">
<title>n12</title>
<polygon fill="#e9f7ef" stroke="#1e8449" points="1670.5,-450 1408.17,-450 1408.17,-414 1670.5,-414 1670.5,-450"/>
<text xml:space="preserve" text-anchor="middle" x="1539.34" y="-429" font-family="Helvetica,sans-Serif" font-size="10.00" fill="#111111">Symbol(name=b,stmt_id=115,symbol_id=112,index=18)</text>
</g>
<!-- n11&#45;&gt;n12 -->
<g id="edge14" class="edge">
<title>n11-&gt;n12</title>
<path fill="none" stroke="#1e8449" stroke-width="1.2" d="M1598.62,-550.41C1601.77,-545.02 1604.72,-538.89 1606.34,-532.8 1610.44,-517.34 1612.64,-511.51 1606.34,-496.8 1599.77,-481.48 1587.51,-468.09 1575.26,-457.59"/>
<polygon fill="#1e8449" stroke="#1e8449" stroke-width="1.2" points="1577.82,-455.15 1567.83,-451.6 1573.42,-460.6 1577.82,-455.15"/>
<text xml:space="preserve" text-anchor="middle" x="1656.31" y="-512.1" font-family="Helvetica,sans-Serif" font-size="9.00">115:symbol_is_defined</text>
</g>
<!-- n12&#45;&gt;n13 -->
<g id="edge15" class="edge">
<title>n12-&gt;n13</title>
<path fill="none" stroke="#d35400" stroke-width="1.2" d="M1407.94,-414.01C1308.03,-401.1 1170.41,-383.3 1065.86,-369.79"/>
<polygon fill="#d35400" stroke="#d35400" stroke-width="1.2" points="1066.41,-366.33 1056.04,-368.52 1065.51,-373.27 1066.41,-366.33"/>
<text xml:space="preserve" text-anchor="middle" x="1299.53" y="-387.9" font-family="Helvetica,sans-Serif" font-size="9.00">115:symbol_state</text>
</g>
<!-- n34 -->
<g id="node34" class="node">
<title>n34</title>
<polygon fill="lightgrey" stroke="black" points="1544.82,-367.2 1243.86,-367.2 1243.86,-331.2 1544.82,-331.2 1544.82,-367.2"/>
<text xml:space="preserve" text-anchor="middle" x="1394.34" y="-346.2" font-family="Helvetica,sans-Serif" font-size="10.00" fill="#111111">Stmt(stmt_id=117,name=field_read,line=4,operation=%vv5 = b.f)</text>
</g>
<!-- n12&#45;&gt;n34 -->
<g id="edge17" class="edge">
<title>n12-&gt;n34</title>
<path fill="none" stroke="#2b65d9" stroke-width="1.2" d="M1508.23,-413.67C1487.09,-401.88 1458.88,-386.17 1435.83,-373.32"/>
<polygon fill="#2b65d9" stroke="#2b65d9" stroke-width="1.2" points="1437.67,-370.34 1427.23,-368.53 1434.26,-376.45 1437.67,-370.34"/>
<text xml:space="preserve" text-anchor="middle" x="1530.18" y="-387.9" font-family="Helvetica,sans-Serif" font-size="9.00">117:symbol_is_used,pos=0</text>
</g>
<!-- n36 -->
<g id="node36" class="node">
<title>n36</title>
<polygon fill="#fdedec" stroke="#c0392b" stroke-width="2.2" stroke-dasharray="5,2" points="1902.01,-367.2 1562.67,-367.2 1562.67,-331.2 1902.01,-331.2 1902.01,-367.2"/>
<text xml:space="preserve" text-anchor="middle" x="1732.34" y="-346.2" font-family="Helvetica,sans-Serif" font-size="10.00" fill="#111111">State(stmt_id=127,state_id=130,index=81,stmt_id=127,access_path=a.g)</text>
</g>
<!-- n12&#45;&gt;n36 -->
<g id="edge16" class="edge">
<title>n12-&gt;n36</title>
<path fill="none" stroke="#d35400" stroke-width="1.2" d="M1580.74,-413.67C1609.37,-401.68 1647.74,-385.62 1678.71,-372.65"/>
<polygon fill="#d35400" stroke="#d35400" stroke-width="1.2" points="1679.78,-376 1687.66,-368.91 1677.08,-369.54 1679.78,-376"/>
<text xml:space="preserve" text-anchor="middle" x="1682.66" y="-387.9" font-family="Helvetica,sans-Serif" font-size="9.00">117:symbol_state</text>
</g>
<!-- n30 -->
<g id="node30" class="node">
<title>n30</title>
<polygon fill="#fdedec" stroke="#c0392b" stroke-width="2.2" stroke-dasharray="5,2" points="1084.01,-201.6 744.67,-201.6 744.67,-165.6 1084.01,-165.6 1084.01,-201.6"/>
<text xml:space="preserve" text-anchor="middle" x="914.34" y="-180.6" font-family="Helvetica,sans-Serif" font-size="10.00" fill="#111111">State(stmt_id=127,state_id=130,index=79,stmt_id=127,access_path=a.g)</text>
</g>
<!-- n13&#45;&gt;n30 -->
<g id="edge18" class="edge">
<title>n13-&gt;n30</title>
<path fill="none" stroke="#f39c12" stroke-width="1.2" d="M914.34,-330.38C914.34,-302.35 914.34,-247.68 914.34,-213.84"/>
<polygon fill="#f39c12" stroke="#f39c12" stroke-width="1.2" points="917.84,-214.21 914.34,-204.21 910.84,-214.21 917.84,-214.21"/>
<text xml:space="preserve" text-anchor="middle" x="980.25" y="-263.7" font-family="Helvetica,sans-Serif" font-size="9.00">127:state_copy,name=field_write</text>
</g>
<!-- n15 -->
<g id="node15" class="node">
<title>n15</title>
<polygon fill="#e9f7ef" stroke="#1e8449" points="2024.95,-532.8 1743.73,-532.8 1743.73,-496.8 2024.95,-496.8 2024.95,-532.8"/>
<text xml:space="preserve" text-anchor="middle" x="1884.34" y="-511.8" font-family="Helvetica,sans-Serif" font-size="10.00" fill="#111111">Symbol(name=%vv3,stmt_id=116,symbol_id=116,index=21)</text>
</g>
<!-- n14&#45;&gt;n15 -->
<g id="edge19" class="edge">
<title>n14-&gt;n15</title>
<path fill="none" stroke="#1e8449" stroke-width="1.2" d="M1806.28,-604.77C1821.17,-587.79 1844.24,-561.5 1861.45,-541.89"/>
<polygon fill="#1e8449" stroke="#1e8449" stroke-width="1.2" points="1863.96,-544.33 1867.93,-534.51 1858.7,-539.71 1863.96,-544.33"/>
<text xml:space="preserve" text-anchor="middle" x="1897.63" y="-566.1" font-family="Helvetica,sans-Serif" font-size="9.00">116:symbol_is_defined</text>
</g>
<!-- n18 -->
<g id="node18" class="node">
<title>n18</title>
<polygon fill="#fff4e6" stroke="#d35400" points="1989.67,-450 1729,-450 1729,-414 1989.67,-414 1989.67,-450"/>
<text xml:space="preserve" text-anchor="middle" x="1859.34" y="-429" font-family="Helvetica,sans-Serif" font-size="10.00" fill="#111111">State(stmt_id=116,state_id=131,index=53,stmt_id=116)</text>
</g>
<!-- n15&#45;&gt;n18 -->
<g id="edge20" class="edge">
<title>n15-&gt;n18</title>
<path fill="none" stroke="#d35400" stroke-width="1.2" d="M1879.04,-496.66C1875.87,-486.45 1871.78,-473.23 1868.15,-461.48"/>
<polygon fill="#d35400" stroke="#d35400" stroke-width="1.2" points="1871.55,-460.64 1865.25,-452.12 1864.87,-462.71 1871.55,-460.64"/>
<text xml:space="preserve" text-anchor="middle" x="1908.6" y="-470.7" font-family="Helvetica,sans-Serif" font-size="9.00">116:symbol_state</text>
</g>
<!-- n33 -->
<g id="node33" class="node">
<title>n33</title>
<polygon fill="#fff4e6" stroke="#d35400" points="2268.67,-450 2008,-450 2008,-414 2268.67,-414 2268.67,-450"/>
<text xml:space="preserve" text-anchor="middle" x="2138.34" y="-429" font-family="Helvetica,sans-Serif" font-size="10.00" fill="#111111">State(stmt_id=116,state_id=135,index=84,stmt_id=116)</text>
</g>
<!-- n15&#45;&gt;n33 -->
<g id="edge21" class="edge">
<title>n15-&gt;n33</title>
<path fill="none" stroke="#d35400" stroke-width="1.2" d="M1939.14,-496.37C1978.28,-483.92 2031.12,-467.11 2072.55,-453.93"/>
<polygon fill="#d35400" stroke="#d35400" stroke-width="1.2" points="2073.43,-457.32 2081.9,-450.95 2071.31,-450.65 2073.43,-457.32"/>
<text xml:space="preserve" text-anchor="middle" x="2061.82" y="-470.7" font-family="Helvetica,sans-Serif" font-size="9.00">116:symbol_state</text>
</g>
<!-- n16 -->
<g id="node16" class="node">
<title>n16</title>
<polygon fill="#e9f7ef" stroke="#1e8449" points="2170.67,-723.6 1900,-723.6 1900,-687.6 2170.67,-687.6 2170.67,-723.6"/>
<text xml:space="preserve" text-anchor="middle" x="2035.34" y="-702.6" font-family="Helvetica,sans-Serif" font-size="10.00" fill="#111111">Symbol(name=foo,stmt_id=116,symbol_id=119,index=19)</text>
</g>
<!-- n16&#45;&gt;n14 -->
<g id="edge23" class="edge">
<title>n16-&gt;n14</title>
<path fill="none" stroke="#2b65d9" stroke-width="1.2" d="M1982.69,-687.17C1945.25,-674.77 1894.76,-658.05 1855.05,-644.9"/>
<polygon fill="#2b65d9" stroke="#2b65d9" stroke-width="1.2" points="1856.2,-641.59 1845.61,-641.77 1854,-648.24 1856.2,-641.59"/>
<text xml:space="preserve" text-anchor="middle" x="1982.61" y="-661.5" font-family="Helvetica,sans-Serif" font-size="9.00">116:symbol_is_used,pos=0</text>
</g>
<!-- n17 -->
<g id="node17" class="node">
<title>n17</title>
<polygon fill="#fff4e6" stroke="#d35400" points="2309.01,-640.8 1969.67,-640.8 1969.67,-604.8 2309.01,-604.8 2309.01,-640.8"/>
<text xml:space="preserve" text-anchor="middle" x="2139.34" y="-619.8" font-family="Helvetica,sans-Serif" font-size="10.00" fill="#111111">State(stmt_id=116,state_id=112,index=34,stmt_id=116,access_path=foo)</text>
</g>
<!-- n16&#45;&gt;n17 -->
<g id="edge22" class="edge">
<title>n16-&gt;n17</title>
<path fill="none" stroke="#d35400" stroke-width="1.2" d="M2057.65,-687.27C2072.32,-675.87 2091.72,-660.79 2107.94,-648.19"/>
<polygon fill="#d35400" stroke="#d35400" stroke-width="1.2" points="2109.88,-651.12 2115.63,-642.22 2105.59,-645.59 2109.88,-651.12"/>
<text xml:space="preserve" text-anchor="middle" x="2128.83" y="-661.5" font-family="Helvetica,sans-Serif" font-size="9.00">116:symbol_state</text>
</g>
<!-- n19 -->
<g id="node19" class="node">
<title>n19</title>
<polygon fill="lightgrey" stroke="black" points="888.34,-723.6 584.33,-723.6 584.33,-687.6 888.34,-687.6 888.34,-723.6"/>
<text xml:space="preserve" text-anchor="middle" x="736.34" y="-702.6" font-family="Helvetica,sans-Serif" font-size="10.00" fill="#111111">Stmt(stmt_id=121,name=parameter_decl,line=6,operation=nan z)</text>
</g>
<!-- n19&#45;&gt;n20 -->
<g id="edge24" class="edge">
<title>n19-&gt;n20</title>
<path fill="none" stroke="#1e8449" stroke-width="1.2" d="M736.34,-687.46C736.34,-677.36 736.34,-664.3 736.34,-652.65"/>
<polygon fill="#1e8449" stroke="#1e8449" stroke-width="1.2" points="739.84,-653.01 736.34,-643.01 732.84,-653.01 739.84,-653.01"/>
<text xml:space="preserve" text-anchor="middle" x="782.37" y="-661.5" font-family="Helvetica,sans-Serif" font-size="9.00">121:symbol_is_defined</text>
</g>
<!-- n20&#45;&gt;n10 -->
<g id="edge25" class="edge">
<title>n20-&gt;n10</title>
<path fill="none" stroke="#d35400" stroke-width="1.2" d="M736.34,-604.77C736.34,-588.64 736.34,-564.09 736.34,-544.87"/>
<polygon fill="#d35400" stroke="#d35400" stroke-width="1.2" points="739.84,-544.96 736.34,-534.96 732.84,-544.96 739.84,-544.96"/>
<text xml:space="preserve" text-anchor="middle" x="771.61" y="-566.1" font-family="Helvetica,sans-Serif" font-size="9.00">121:symbol_state</text>
</g>
<!-- n21 -->
<g id="node21" class="node">
<title>n21</title>
<polygon fill="lightgrey" stroke="black" points="553.2,-532.8 269.47,-532.8 269.47,-496.8 553.2,-496.8 553.2,-532.8"/>
<text xml:space="preserve" text-anchor="middle" x="411.34" y="-511.8" font-family="Helvetica,sans-Serif" font-size="10.00" fill="#111111">Stmt(stmt_id=125,name=field_read,line=7,operation=x = z.g)</text>
</g>
<!-- n20&#45;&gt;n21 -->
<g id="edge26" class="edge">
<title>n20-&gt;n21</title>
<path fill="none" stroke="#2b65d9" stroke-width="1.2" d="M678.89,-604.35C660.97,-598.83 641.14,-592.64 623.01,-586.8 572.38,-570.49 515.2,-551.26 473.05,-536.93"/>
<polygon fill="#2b65d9" stroke="#2b65d9" stroke-width="1.2" points="474.44,-533.71 463.84,-533.8 472.18,-540.34 474.44,-533.71"/>
<text xml:space="preserve" text-anchor="middle" x="677.68" y="-566.1" font-family="Helvetica,sans-Serif" font-size="9.00">125:symbol_is_used,pos=0</text>
</g>
<!-- n22 -->
<g id="node22" class="node">
<title>n22</title>
<polygon fill="#fdedec" stroke="#c0392b" stroke-width="2.2" points="688.22,-450 426.46,-450 426.46,-414 688.22,-414 688.22,-450"/>
<text xml:space="preserve" text-anchor="middle" x="557.34" y="-429" font-family="Helvetica,sans-Serif" font-size="10.00" fill="#111111">Symbol(name=x,stmt_id=125,symbol_id=124,index=59)</text>
</g>
<!-- n21&#45;&gt;n22 -->
<g id="edge27" class="edge">
<title>n21-&gt;n22</title>
<path fill="none" stroke="#1e8449" stroke-width="1.2" d="M442.66,-496.47C463.66,-484.85 491.58,-469.39 514.61,-456.65"/>
<polygon fill="#1e8449" stroke="#1e8449" stroke-width="1.2" points="516.16,-459.79 523.21,-451.88 512.77,-453.66 516.16,-459.79"/>
<text xml:space="preserve" text-anchor="middle" x="539.11" y="-470.7" font-family="Helvetica,sans-Serif" font-size="9.00">125:symbol_is_defined</text>
</g>
<!-- n22&#45;&gt;n13 -->
<g id="edge28" class="edge">
<title>n22-&gt;n13</title>
<path fill="none" stroke="#d35400" stroke-width="1.2" d="M618.61,-412.98C634.61,-407.87 651.73,-402.05 667.34,-396 678.04,-391.85 679.81,-388.52 690.8,-385.2 709.82,-379.45 730.06,-374.61 750.29,-370.54"/>
<polygon fill="#d35400" stroke="#d35400" stroke-width="1.2" points="750.92,-373.98 760.07,-368.64 749.59,-367.11 750.92,-373.98"/>
<text xml:space="preserve" text-anchor="middle" x="726.07" y="-387.9" font-family="Helvetica,sans-Serif" font-size="9.00">125:symbol_state</text>
</g>
<!-- n28 -->
<g id="node28" class="node">
<title>n28</title>
<polygon fill="#e8f0fe" stroke="#2b65d9" stroke-width="2" points="726.47,-367.2 442.21,-367.2 442.21,-331.2 726.47,-331.2 726.47,-367.2"/>
<text xml:space="preserve" text-anchor="middle" x="584.34" y="-346.2" font-family="Helvetica,sans-Serif" font-size="10.00" fill="#111111">Stmt(stmt_id=127,name=field_write,line=9,operation=x.f = w)</text>
</g>
<!-- n22&#45;&gt;n28 -->
<g id="edge29" class="edge">
<title>n22-&gt;n28</title>
<path fill="none" stroke="#2b65d9" stroke-width="1.2" d="M555.07,-413.16C554.59,-404.5 554.98,-394.08 558.01,-385.2 558.85,-382.75 559.94,-380.32 561.19,-377.97"/>
<polygon fill="#2b65d9" stroke="#2b65d9" stroke-width="1.2" points="564.03,-380.02 566.48,-369.71 558.13,-376.24 564.03,-380.02"/>
<text xml:space="preserve" text-anchor="middle" x="612.68" y="-387.9" font-family="Helvetica,sans-Serif" font-size="9.00">127:symbol_is_used,pos=0</text>
</g>
<!-- n23 -->
<g id="node23" class="node">
<title>n23</title>
<polygon fill="lightgrey" stroke="black" points="1597.74,-532.8 1292.93,-532.8 1292.93,-496.8 1597.74,-496.8 1597.74,-532.8"/>
<text xml:space="preserve" text-anchor="middle" x="1445.34" y="-511.8" font-family="Helvetica,sans-Serif" font-size="10.00" fill="#111111">Stmt(stmt_id=126,name=call_stmt,line=8,operation=w = source())</text>
</g>
<!-- n24 -->
<g id="node24" class="node">
<title>n24</title>
<polygon fill="#fdedec" stroke="#c0392b" stroke-width="2.2" points="1266.33,-450 1002.34,-450 1002.34,-414 1266.33,-414 1266.33,-450"/>
<text xml:space="preserve" text-anchor="middle" x="1134.34" y="-429" font-family="Helvetica,sans-Serif" font-size="10.00" fill="#111111">Symbol(name=w,stmt_id=126,symbol_id=123,index=61)</text>
</g>
<!-- n23&#45;&gt;n24 -->
<g id="edge30" class="edge">
<title>n23-&gt;n24</title>
<path fill="none" stroke="#1e8449" stroke-width="1.2" d="M1378.24,-496.37C1330.34,-483.92 1265.7,-467.13 1214.99,-453.95"/>
<polygon fill="#1e8449" stroke="#1e8449" stroke-width="1.2" points="1216.06,-450.62 1205.5,-451.49 1214.3,-457.39 1216.06,-450.62"/>
<text xml:space="preserve" text-anchor="middle" x="1354.49" y="-470.7" font-family="Helvetica,sans-Serif" font-size="9.00">126:symbol_is_defined</text>
</g>
<!-- n27 -->
<g id="node27" class="node">
<title>n27</title>
<polygon fill="#fdedec" stroke="#c0392b" stroke-width="2.2" stroke-dasharray="5,2" points="1290.67,-118.8 958.01,-118.8 958.01,-82.8 1290.67,-82.8 1290.67,-118.8"/>
<text xml:space="preserve" text-anchor="middle" x="1124.34" y="-97.8" font-family="Helvetica,sans-Serif" font-size="10.00" fill="#111111">State(stmt_id=126,state_id=134,index=78,stmt_id=126,access_path=w)</text>
</g>
<!-- n24&#45;&gt;n27 -->
<g id="edge31" class="edge">
<title>n24-&gt;n27</title>
<path fill="none" stroke="#d35400" stroke-width="1.2" d="M1131.54,-413.08C1129.23,-396.74 1126.34,-371.91 1126.34,-350.2 1126.34,-350.2 1126.34,-350.2 1126.34,-182.6 1126.34,-165.55 1125.89,-146.48 1125.41,-131.15"/>
<polygon fill="#d35400" stroke="#d35400" stroke-width="1.2" points="1128.93,-131.46 1125.1,-121.58 1121.93,-131.69 1128.93,-131.46"/>
<text xml:space="preserve" text-anchor="middle" x="1161.61" y="-263.7" font-family="Helvetica,sans-Serif" font-size="9.00">126:symbol_state</text>
</g>
<!-- n24&#45;&gt;n28 -->
<g id="edge32" class="edge">
<title>n24-&gt;n28</title>
<path fill="none" stroke="#2b65d9" stroke-width="1.2" d="M1001.47,-414.13C959.39,-408.59 912.72,-402.25 870.01,-396 815.26,-387.99 754.73,-378.39 703.53,-370.05"/>
<polygon fill="#2b65d9" stroke="#2b65d9" stroke-width="1.2" points="704.3,-366.63 693.87,-368.48 703.18,-373.54 704.3,-366.63"/>
<text xml:space="preserve" text-anchor="middle" x="924.68" y="-387.9" font-family="Helvetica,sans-Serif" font-size="9.00">127:symbol_is_used,pos=2</text>
</g>
<!-- n25 -->
<g id="node25" class="node">
<title>n25</title>
<polygon fill="#e9f7ef" stroke="#1e8449" points="1371.57,-640.8 1155.11,-640.8 1155.11,-604.8 1371.57,-604.8 1371.57,-640.8"/>
<text xml:space="preserve" text-anchor="middle" x="1263.34" y="-619.8" font-family="Helvetica,sans-Serif" font-size="10.00" fill="#111111">Symbol(name=source,stmt_id=126,index=60)</text>
</g>
<!-- n25&#45;&gt;n23 -->
<g id="edge34" class="edge">
<title>n25-&gt;n23</title>
<path fill="none" stroke="#2b65d9" stroke-width="1.2" d="M1274.44,-604.37C1285.59,-588.22 1304.23,-564.65 1326.01,-550.8 1334.13,-545.64 1343.04,-541.21 1352.22,-537.42"/>
<polygon fill="#2b65d9" stroke="#2b65d9" stroke-width="1.2" points="1353.3,-540.76 1361.38,-533.91 1350.79,-534.22 1353.3,-540.76"/>
<text xml:space="preserve" text-anchor="middle" x="1380.68" y="-566.1" font-family="Helvetica,sans-Serif" font-size="9.00">126:symbol_is_used,pos=0</text>
</g>
<!-- n26 -->
<g id="node26" class="node">
<title>n26</title>
<polygon fill="#fff4e6" stroke="#d35400" points="1275.06,-532.8 919.61,-532.8 919.61,-496.8 1275.06,-496.8 1275.06,-532.8"/>
<text xml:space="preserve" text-anchor="middle" x="1097.34" y="-511.8" font-family="Helvetica,sans-Serif" font-size="10.00" fill="#111111">State(stmt_id=126,state_id=118,index=70,stmt_id=126,access_path=source)</text>
</g>
<!-- n25&#45;&gt;n26 -->
<g id="edge33" class="edge">
<title>n25-&gt;n26</title>
<path fill="none" stroke="#d35400" stroke-width="1.2" d="M1223.42,-604.31C1212.6,-599.09 1201.05,-593.08 1190.8,-586.8 1168.16,-572.93 1144.35,-554.79 1126.44,-540.32"/>
<polygon fill="#d35400" stroke="#d35400" stroke-width="1.2" points="1129,-537.89 1119.05,-534.27 1124.57,-543.31 1129,-537.89"/>
<text xml:space="preserve" text-anchor="middle" x="1226.07" y="-566.1" font-family="Helvetica,sans-Serif" font-size="9.00">126:symbol_state</text>
</g>
<!-- n29 -->
<g id="node29" class="node">
<title>n29</title>
<polygon fill="#fdedec" stroke="#c0392b" stroke-width="2.2" points="837.22,-284.4 575.46,-284.4 575.46,-248.4 837.22,-248.4 837.22,-284.4"/>
<text xml:space="preserve" text-anchor="middle" x="706.34" y="-263.4" font-family="Helvetica,sans-Serif" font-size="10.00" fill="#111111">Symbol(name=x,stmt_id=127,symbol_id=124,index=65)</text>
</g>
<!-- n28&#45;&gt;n29 -->
<g id="edge35" class="edge">
<title>n28-&gt;n29</title>
<path fill="none" stroke="#1e8449" stroke-width="1.2" d="M611.41,-330.27C628.55,-318.92 650.93,-304.1 669.65,-291.7"/>
<polygon fill="#1e8449" stroke="#1e8449" stroke-width="1.2" points="671.42,-294.72 677.82,-286.28 667.55,-288.89 671.42,-294.72"/>
<text xml:space="preserve" text-anchor="middle" x="698.67" y="-305.1" font-family="Helvetica,sans-Serif" font-size="9.00">127:symbol_is_defined</text>
</g>
<!-- n29&#45;&gt;n30 -->
<g id="edge36" class="edge">
<title>n29-&gt;n30</title>
<path fill="none" stroke="#d35400" stroke-width="1.2" d="M752.76,-247.37C783.63,-235.37 824.39,-219.54 857.24,-206.78"/>
<polygon fill="#d35400" stroke="#d35400" stroke-width="1.2" points="858.31,-210.12 866.37,-203.24 855.78,-203.59 858.31,-210.12"/>
<text xml:space="preserve" text-anchor="middle" x="858.06" y="-222.3" font-family="Helvetica,sans-Serif" font-size="9.00">127:symbol_state</text>
</g>
<!-- n30&#45;&gt;n27 -->
<g id="edge37" class="edge">
<title>n30-&gt;n27</title>
<path fill="none" stroke="#9b59b6" stroke-width="1.2" d="M945.05,-164.72C961.68,-155.54 982.8,-144.66 1002.51,-136.8 1014.97,-131.83 1028.4,-127.25 1041.63,-123.14"/>
<polygon fill="#9b59b6" stroke="#9b59b6" stroke-width="1.2" points="1042.37,-126.58 1050.94,-120.34 1040.35,-119.87 1042.37,-126.58"/>
<text xml:space="preserve" text-anchor="middle" x="1057.43" y="-139.5" font-family="Helvetica,sans-Serif" font-size="9.00">127:state_inclusion,name=f</text>
</g>
<!-- n31 -->
<g id="node31" class="node">
<title>n31</title>
<polygon fill="#fff4e6" stroke="#d35400" points="1900.84,-889.2 1569.84,-889.2 1569.84,-853.2 1900.84,-853.2 1900.84,-889.2"/>
<text xml:space="preserve" text-anchor="middle" x="1735.34" y="-868.2" font-family="Helvetica,sans-Serif" font-size="10.00" fill="#111111">State(stmt_id=116,state_id=129,index=82,stmt_id=116,access_path=a)</text>
</g>
<!-- n32 -->
<g id="node32" class="node">
<title>n32</title>
<polygon fill="#fff4e6" stroke="#d35400" points="1900.84,-806.4 1569.84,-806.4 1569.84,-770.4 1900.84,-770.4 1900.84,-806.4"/>
<text xml:space="preserve" text-anchor="middle" x="1735.34" y="-785.4" font-family="Helvetica,sans-Serif" font-size="10.00" fill="#111111">State(stmt_id=116,state_id=129,index=83,stmt_id=116,access_path=a)</text>
</g>
<!-- n31&#45;&gt;n32 -->
<g id="edge38" class="edge">
<title>n31-&gt;n32</title>
<path fill="none" stroke="#f39c12" stroke-width="1.2" d="M1735.34,-853.06C1735.34,-842.96 1735.34,-829.9 1735.34,-818.25"/>
<polygon fill="#f39c12" stroke="#f39c12" stroke-width="1.2" points="1738.84,-818.61 1735.34,-808.61 1731.84,-818.61 1738.84,-818.61"/>
<text xml:space="preserve" text-anchor="middle" x="1798.75" y="-827.1" font-family="Helvetica,sans-Serif" font-size="9.00">116:state_copy,name=call_stmt</text>
</g>
<!-- n35 -->
<g id="node35" class="node">
<title>n35</title>
<polygon fill="#fdedec" stroke="#c0392b" stroke-width="2.2" points="1534.95,-284.4 1253.73,-284.4 1253.73,-248.4 1534.95,-248.4 1534.95,-284.4"/>
<text xml:space="preserve" text-anchor="middle" x="1394.34" y="-263.4" font-family="Helvetica,sans-Serif" font-size="10.00" fill="#111111">Symbol(name=%vv5,stmt_id=117,symbol_id=117,index=24)</text>
</g>
<!-- n34&#45;&gt;n35 -->
<g id="edge39" class="edge">
<title>n34-&gt;n35</title>
<path fill="none" stroke="#1e8449" stroke-width="1.2" d="M1394.34,-331.06C1394.34,-321.2 1394.34,-308.53 1394.34,-297.09"/>
<polygon fill="#1e8449" stroke="#1e8449" stroke-width="1.2" points="1397.84,-297.17 1394.34,-287.17 1390.84,-297.17 1397.84,-297.17"/>
<text xml:space="preserve" text-anchor="middle" x="1440.37" y="-305.1" font-family="Helvetica,sans-Serif" font-size="9.00">117:symbol_is_defined</text>
</g>
<!-- n35&#45;&gt;n27 -->
<g id="edge40" class="edge">
<title>n35-&gt;n27</title>
<path fill="none" stroke="#d35400" stroke-width="1.2" d="M1295.53,-247.3C1261.36,-237.69 1224.27,-223.22 1194.8,-201.6 1169.37,-182.95 1149.71,-152.3 1137.7,-129.88"/>
<polygon fill="#d35400" stroke="#d35400" stroke-width="1.2" points="1140.94,-128.53 1133.25,-121.24 1134.71,-131.74 1140.94,-128.53"/>
<text xml:space="preserve" text-anchor="middle" x="1230.07" y="-180.9" font-family="Helvetica,sans-Serif" font-size="9.00">117:symbol_state</text>
</g>
<!-- n37 -->
<g id="node37" class="node">
<title>n37</title>
<polygon fill="#e8f0fe" stroke="#2b65d9" stroke-width="2" points="1618.16,-201.6 1274.52,-201.6 1274.52,-165.6 1618.16,-165.6 1618.16,-201.6"/>
<text xml:space="preserve" text-anchor="middle" x="1446.34" y="-180.6" font-family="Helvetica,sans-Serif" font-size="10.00" fill="#111111">Stmt(stmt_id=118,name=call_stmt,line=4,operation=%vv4 = sink(['%vv5']))</text>
</g>
<!-- n35&#45;&gt;n37 -->
<g id="edge41" class="edge">
<title>n35-&gt;n37</title>
<path fill="none" stroke="#2b65d9" stroke-width="1.2" d="M1405.88,-247.47C1412.54,-237.11 1421.07,-223.87 1428.57,-212.21"/>
<polygon fill="#2b65d9" stroke="#2b65d9" stroke-width="1.2" points="1431.38,-214.31 1433.85,-204.01 1425.49,-210.52 1431.38,-214.31"/>
<text xml:space="preserve" text-anchor="middle" x="1478.11" y="-222.3" font-family="Helvetica,sans-Serif" font-size="9.00">118:symbol_is_used,pos=1</text>
</g>
<!-- n38 -->
<g id="node38" class="node">
<title>n38</title>
<polygon fill="#fdedec" stroke="#c0392b" stroke-width="2.2" points="1589.95,-118.8 1308.73,-118.8 1308.73,-82.8 1589.95,-82.8 1589.95,-118.8"/>
<text xml:space="preserve" text-anchor="middle" x="1449.34" y="-97.8" font-family="Helvetica,sans-Serif" font-size="10.00" fill="#111111">Symbol(name=%vv4,stmt_id=118,symbol_id=118,index=27)</text>
</g>
<!-- n37&#45;&gt;n38 -->
<g id="edge42" class="edge">
<title>n37-&gt;n38</title>
<path fill="none" stroke="#1e8449" stroke-width="1.2" d="M1447,-164.67C1447.37,-154.83 1447.83,-142.4 1448.25,-131.19"/>
<polygon fill="#1e8449" stroke="#1e8449" stroke-width="1.2" points="1451.73,-131.62 1448.61,-121.5 1444.74,-131.36 1451.73,-131.62"/>
<text xml:space="preserve" text-anchor="middle" x="1494.05" y="-139.5" font-family="Helvetica,sans-Serif" font-size="9.00">118:symbol_is_defined</text>
</g>
<!-- n41 -->
<g id="node41" class="node">
<title>n41</title>
<polygon fill="#fdedec" stroke="#c0392b" stroke-width="2.2" stroke-dasharray="5,2" points="1624.28,-36 1274.39,-36 1274.39,0 1624.28,0 1624.28,-36"/>
<text xml:space="preserve" text-anchor="middle" x="1449.34" y="-15" font-family="Helvetica,sans-Serif" font-size="10.00" fill="#111111">State(stmt_id=118,state_id=136,index=85,stmt_id=118,access_path=%vv4)</text>
</g>
<!-- n38&#45;&gt;n41 -->
<g id="edge43" class="edge">
<title>n38-&gt;n41</title>
<path fill="none" stroke="#d35400" stroke-width="1.2" d="M1449.34,-81.87C1449.34,-72.03 1449.34,-59.6 1449.34,-48.39"/>
<polygon fill="#d35400" stroke="#d35400" stroke-width="1.2" points="1452.84,-48.7 1449.34,-38.7 1445.84,-48.7 1452.84,-48.7"/>
<text xml:space="preserve" text-anchor="middle" x="1484.61" y="-56.7" font-family="Helvetica,sans-Serif" font-size="9.00">118:symbol_state</text>
</g>
<!-- n39 -->
<g id="node39" class="node">
<title>n39</title>
<polygon fill="#e9f7ef" stroke="#1e8449" points="1779.45,-284.4 1575.23,-284.4 1575.23,-248.4 1779.45,-248.4 1779.45,-284.4"/>
<text xml:space="preserve" text-anchor="middle" x="1677.34" y="-263.4" font-family="Helvetica,sans-Serif" font-size="10.00" fill="#111111">Symbol(name=sink,stmt_id=118,index=25)</text>
</g>
<!-- n39&#45;&gt;n37 -->
<g id="edge45" class="edge">
<title>n39-&gt;n37</title>
<path fill="none" stroke="#2b65d9" stroke-width="1.2" d="M1627.5,-247.97C1592.61,-235.76 1545.76,-219.38 1508.44,-206.32"/>
<polygon fill="#2b65d9" stroke="#2b65d9" stroke-width="1.2" points="1510,-203.16 1499.4,-203.16 1507.68,-209.77 1510,-203.16"/>
<text xml:space="preserve" text-anchor="middle" x="1630.33" y="-222.3" font-family="Helvetica,sans-Serif" font-size="9.00">118:symbol_is_used,pos=0</text>
</g>
<!-- n40 -->
<g id="node40" class="node">
<title>n40</title>
<polygon fill="#fff4e6" stroke="#d35400" points="1978.95,-201.6 1635.73,-201.6 1635.73,-165.6 1978.95,-165.6 1978.95,-201.6"/>
<text xml:space="preserve" text-anchor="middle" x="1807.34" y="-180.6" font-family="Helvetica,sans-Serif" font-size="10.00" fill="#111111">State(stmt_id=118,state_id=122,index=46,stmt_id=118,access_path=sink)</text>
</g>
<!-- n39&#45;&gt;n40 -->
<g id="edge44" class="edge">
<title>n39-&gt;n40</title>
<path fill="none" stroke="#d35400" stroke-width="1.2" d="M1730.06,-248.02C1741.5,-243.15 1753.2,-237.28 1763.34,-230.4 1771.42,-224.92 1779.18,-217.74 1785.87,-210.71"/>
<polygon fill="#d35400" stroke="#d35400" stroke-width="1.2" points="1788.4,-213.12 1792.5,-203.35 1783.2,-208.44 1788.4,-213.12"/>
<text xml:space="preserve" text-anchor="middle" x="1810.85" y="-222.3" font-family="Helvetica,sans-Serif" font-size="9.00">118:symbol_state</text>
</g>
</g>
</svg>